<svg width="584" height="650" viewBox="0 0 584 650" fill="none" xmlns="http://www.w3.org/2000/svg">
<path d="M0 0C74.2606 0 145.48 29.0096 197.99 80.6471C250.5 132.285 280 202.32 280 275.347V650H0V0Z" fill="#FEFFFF"/>
<path d="M444 346C521.32 346 584 283.32 584 206C584 128.68 521.32 66 444 66C366.68 66 304 128.68 304 206C304 283.32 366.68 346 444 346Z" fill="#FEFFFF"/>
<path d="M584 370C584.003 406.769 576.762 443.179 562.692 477.15C548.622 511.121 527.998 541.988 501.997 567.989C475.996 593.989 445.129 614.614 411.156 628.686C377.184 642.757 340.772 650 304 650V370H584Z" fill="#FEFFFF"/>
</svg>
